<?xml version="1.0" encoding="UTF-8"?>
<svg width="500px" height="500px" viewBox="0 0 500 500" version="1.1" xmlns="http://www.w3.org/2000/svg" xmlns:xlink="http://www.w3.org/1999/xlink">
    <!-- Generator: Sketch 51.3 (57544) - http://www.bohemiancoding.com/sketch -->
    <title>automation</title>
    <desc>Created with Sketch.</desc>
    <defs></defs>
    <g id="Page-1" stroke="none" stroke-width="1" fill="none" fill-rule="evenodd">
        <g id="Artboard" transform="translate(-2930.000000, -142.000000)" fill="#007BFF" fill-rule="nonzero">
            <g id="automation" transform="translate(2930.000000, 142.000000)">
                <path d="M107.920792,207.920792 C84.9561028,207.920792 66.3366337,226.540261 66.3366337,249.50495 C66.3366337,272.46964 84.9561028,291.089109 107.920792,291.089109 C130.885481,291.089109 149.50495,272.46964 149.50495,249.50495 C149.476524,226.548384 130.877359,207.949219 107.920792,207.920792 Z M107.920792,274.455446 C94.1419789,274.455446 82.970297,263.283764 82.970297,249.50495 C82.970297,235.726137 94.1419789,224.554455 107.920792,224.554455 C121.699605,224.554455 132.871287,235.726137 132.871287,249.50495 C132.871287,263.283764 121.699605,274.455446 107.920792,274.455446 Z" id="Shape"></path>
                <path d="M275.247525,116.831683 C298.212214,116.831683 316.831683,98.2122141 316.831683,75.2475248 C316.831683,52.2828354 298.212214,33.6633663 275.247525,33.6633663 C252.282835,33.6633663 233.663366,52.2828354 233.663366,75.2475248 C233.691793,98.2040916 252.290958,116.803256 275.247525,116.831683 Z M275.247525,50.2970297 C289.026338,50.2970297 300.19802,61.4687116 300.19802,75.2475248 C300.19802,89.0263379 289.026338,100.19802 275.247525,100.19802 C261.468712,100.19802 250.29703,89.0263379 250.29703,75.2475248 C250.29703,61.4687116 261.468712,50.2970297 275.247525,50.2970297 Z" id="Shape"></path>
                <path d="M474.999875,253.531901 L474.999875,225 C474.93477,204.060873 459.309775,186.437989 438.533413,183.858235 L349.548247,83.0769854 C349.841216,80.3914385 349.99177,77.6977542 349.999908,75 C349.999908,33.577474 316.422442,0 274.999927,0 C233.577412,0 199.999947,33.577474 199.999947,75 C199.999947,76.3264979 200.134224,77.616374 200.199328,78.9184573 L103.889947,175.223796 C73.6816212,176.944988 47.4853395,196.695964 37.5121974,225.264485 C27.5390552,253.833008 35.7584541,285.595703 58.3333179,305.741374 L58.3333179,433.333333 L8.33333113,433.333333 C3.73128131,433.333333 0,437.064616 0,441.666667 L0,491.666667 C0,496.268718 3.73128131,500 8.33333113,500 L324.999914,500 C329.601964,500 333.333245,496.268718 333.333245,491.666667 L333.333245,441.666667 C333.333245,437.064616 329.601964,433.333333 324.999914,433.333333 L158.333292,433.333333 L158.333292,305.741374 C177.461704,288.903808 186.531526,263.374838 182.316033,238.24056 L270.751882,149.784343 C272.167897,149.865723 273.567636,150 274.999927,150 C279.239835,149.975585 283.467536,149.58903 287.64234,148.84847 L391.666563,230.83496 L391.666563,253.548177 C376.505434,260.168457 366.695053,275.12614 366.66657,291.666667 L366.66657,375 C366.650294,377.897135 368.139551,380.590821 370.597233,382.120769 C373.058984,383.650717 376.135155,383.793131 378.723045,382.499186 L412.056369,365.83252 C414.896537,364.416504 416.682833,361.507161 416.666557,358.333333 L416.666557,300 L449.999881,300 L449.999881,358.333333 C449.983605,361.507161 451.7699,364.416504 454.610068,365.83252 L487.943393,382.499186 C490.531283,383.793131 493.607454,383.650717 496.069204,382.120769 C498.526887,380.590821 500.016144,377.897135 499.999868,375 L499.999868,291.666667 C499.979523,275.118001 490.165073,260.152181 474.999875,253.531901 Z M274.999927,16.6666667 C307.218344,16.6666667 333.333245,42.781575 333.333245,75 C333.333245,107.218425 307.218344,133.333333 274.999927,133.333333 C242.781511,133.333333 216.666609,107.218425 216.666609,75 C216.70323,42.7978521 242.797788,16.7032875 274.999927,16.6666667 Z M316.666583,483.333333 L16.6666623,483.333333 L16.6666623,450 L316.666583,450 L316.666583,483.333333 Z M141.666629,433.333333 L74.9999802,433.333333 L74.9999802,317.081706 C95.9716538,327.63265 120.694956,327.63265 141.666629,317.081706 L141.666629,433.333333 Z M108.333305,308.333333 C76.1148882,308.333333 49.9999868,282.218425 49.9999868,250 C49.9999868,217.781575 76.1148882,191.666667 108.333305,191.666667 C140.551721,191.666667 166.666623,217.781575 166.666623,250 C166.630002,282.202148 140.535444,308.296712 108.333305,308.333333 Z M177.010045,219.999186 C167.525184,198.453776 148.498496,182.588704 125.598112,177.124023 L203.934679,98.7915042 C211.413518,121.000162 228.808533,138.456218 250.992772,146.008301 L177.010045,219.999186 Z M344.641023,102.693685 L418.391817,186.2264 C406.970107,190.669759 398.083391,199.91862 394.099831,211.507161 L306.884685,142.781575 C324.076249,134.6639 337.565015,120.340983 344.641023,102.693685 Z M408.333225,225 C408.333225,211.193848 419.52707,200 433.333219,200 C447.139367,200 458.333212,211.193848 458.333212,225 L458.333212,250 L408.333225,250 L408.333225,225 Z M483.333206,361.5153 L466.666543,353.181967 L466.666543,291.666667 C466.666543,287.064616 462.935262,283.333333 458.333212,283.333333 L408.333225,283.333333 C403.731176,283.333333 399.999894,287.064616 399.999894,291.666667 L399.999894,353.181967 L383.333232,361.5153 L383.333232,291.666667 C383.333232,277.860515 394.527077,266.666667 408.333225,266.666667 L458.333212,266.666667 C472.139361,266.666667 483.333206,277.860515 483.333206,291.666667 L483.333206,361.5153 Z" id="Shape"></path>
            </g>
        </g>
    </g>
</svg>