<?xml version="1.0" encoding="UTF-8"?>
<svg width="483px" height="500px" viewBox="0 0 483 500" version="1.1" xmlns="http://www.w3.org/2000/svg" xmlns:xlink="http://www.w3.org/1999/xlink">
    <!-- Generator: Sketch 51.3 (57544) - http://www.bohemiancoding.com/sketch -->
    <title>backend</title>
    <desc>Created with Sketch.</desc>
    <defs></defs>
    <g id="Page-1" stroke="none" stroke-width="1" fill="none" fill-rule="evenodd">
        <g id="Artboard" transform="translate(-1622.000000, -116.000000)" fill="#007BFF" fill-rule="nonzero">
            <g id="backend" transform="translate(1622.000000, 116.000000)">
                <path d="M475.333333,367.219298 L462.666667,364.789474 C456.72807,363.649123 452.052632,359.763158 449.842105,354.122807 C447.622807,348.491228 448.412281,342.464912 451.991228,337.587719 L459.947368,326.745614 C462.508772,323.254386 462.140351,318.412281 459.070175,315.350877 L441.885965,298.175439 C438.912281,295.210526 434.236842,294.763158 430.763158,297.114035 L420.087719,304.342105 C415.087719,307.754386 409.017544,308.298246 403.464912,305.877193 C397.921053,303.464912 394.210526,298.640351 393.289474,292.649123 L391.245614,279.359649 C390.596491,275.087719 386.912281,271.929825 382.587719,271.929825 L358.289474,271.929825 C354.087719,271.929825 350.464912,274.921053 349.675439,279.052632 L346.535088,295.412281 C345.421053,301.219298 341.640351,305.850877 336.175439,308.114035 C330.692982,310.403509 324.763158,309.77193 319.859649,306.45614 L306.070175,297.122807 C302.587719,294.77193 297.921053,295.219298 294.947368,298.184211 L277.763158,315.359649 C274.692982,318.421053 274.324561,323.254386 276.885965,326.754386 L284.842105,337.596491 C288.421053,342.473684 289.210526,348.5 286.991228,354.131579 C284.780702,359.77193 280.105263,363.657895 274.166667,364.798246 L261.5,367.22807 C257.377193,368.017544 254.385965,371.631579 254.385965,375.842105 L254.385965,400.140351 C254.385965,404.464912 257.54386,408.149123 261.824561,408.807018 L275.114035,410.850877 C281.105263,411.77193 285.921053,415.482456 288.342105,421.026316 C290.763158,426.578947 290.201754,432.631579 286.807018,437.649123 L279.578947,448.324561 C277.219298,451.798246 277.666667,456.473684 280.640351,459.447368 L297.815789,476.631579 C300.868421,479.692982 305.701754,480.052632 309.210526,477.508772 L320.052632,469.552632 C324.921053,465.973684 330.964912,465.192982 336.587719,467.403509 C342.22807,469.614035 346.114035,474.289474 347.254386,480.22807 L349.684211,492.894737 C350.473684,497.008772 354.087719,500 358.298246,500 L382.596491,500 C386.921053,500 390.605263,496.842105 391.263158,492.561404 L392.701754,483.219298 C393.622807,477.184211 397.54386,472.201754 403.166667,469.868421 C408.815789,467.535088 415.105263,468.298246 420.017544,471.903509 L427.640351,477.5 C431.149123,480.070175 435.982456,479.692982 439.035088,476.622807 L456.210526,459.438596 C459.184211,456.464912 459.631579,451.798246 457.27193,448.315789 L450.04386,437.640351 C446.649123,432.631579 446.087719,426.570175 448.508772,421.017544 C450.921053,415.473684 455.745614,411.763158 461.736842,410.842105 L475.026316,408.798246 C479.298246,408.140351 482.45614,404.45614 482.45614,400.131579 L482.45614,375.833333 C482.45614,371.631579 479.464912,368.017544 475.333333,367.219298 Z M464.912281,392.614035 L459.061404,393.517544 C447.184211,395.342105 437.22807,403.008772 432.429825,414.017544 C427.622807,425.035088 428.780702,437.54386 435.517544,447.482456 L438.684211,452.157895 L431.947368,458.894737 L430.394737,457.754386 C420.482456,450.5 407.807018,448.964912 396.45614,453.657895 C385.105263,458.359649 377.22807,468.412281 375.359649,480.54386 L375.070175,482.45614 L365.54386,482.45614 L364.482456,476.903509 C362.210526,465.096491 354.175439,455.438596 343,451.052632 C331.815789,446.684211 319.359649,448.298246 309.666667,455.385965 L304.894737,458.885965 L298.157895,452.149123 L301.324561,447.473684 C308.061404,437.526316 309.210526,425.017544 304.412281,414.008772 C299.614035,403 289.649123,395.333333 277.780702,393.508772 L271.929825,392.614035 L271.929825,383.087719 L277.482456,382.026316 C289.289474,379.754386 298.947368,371.719298 303.333333,360.54386 C307.719298,349.359649 306.096491,336.903509 299,327.210526 L295.5,322.438596 L302.236842,315.701754 L310.035088,320.982456 C319.745614,327.578947 332.052632,328.815789 342.903509,324.324561 C353.754386,319.824561 361.561404,310.254386 363.780702,298.719298 L365.54386,289.473684 L375.070175,289.473684 L375.973684,295.324561 C377.798246,307.201754 385.464912,317.157895 396.473684,321.95614 C407.491228,326.754386 420,325.605263 429.938596,318.868421 L434.614035,315.701754 L441.350877,322.438596 L437.850877,327.210526 C430.745614,336.894737 429.131579,349.350877 433.517544,360.54386 C437.903509,371.719298 447.570175,379.754386 459.368421,382.026316 L464.912281,383.087719 L464.912281,392.614035 Z" id="Shape"></path>
                <path d="M368.421053,342.105263 C344.236842,342.105263 324.561404,361.780702 324.561404,385.964912 C324.561404,410.149123 344.236842,429.824561 368.421053,429.824561 C392.605263,429.824561 412.280702,410.149123 412.280702,385.964912 C412.280702,361.780702 392.605263,342.105263 368.421053,342.105263 Z M368.421053,412.280702 C353.912281,412.280702 342.105263,400.473684 342.105263,385.964912 C342.105263,371.45614 353.912281,359.649123 368.421053,359.649123 C382.929825,359.649123 394.736842,371.45614 394.736842,385.964912 C394.736842,400.473684 382.929825,412.280702 368.421053,412.280702 Z" id="Shape"></path>
                <path d="M219.298246,359.649123 C212.04386,359.649123 204.938596,359.508772 197.964912,359.263158 C193.701754,359.105263 189.587719,358.833333 185.429825,358.587719 C182.859649,358.438596 180.210526,358.342105 177.684211,358.157895 C172.157895,357.763158 166.789474,357.245614 161.482456,356.692982 C160.482456,356.587719 159.438596,356.517544 158.447368,356.412281 C152.368421,355.745614 146.447368,354.982456 140.675439,354.140351 C140.526316,354.122807 140.377193,354.105263 140.22807,354.078947 C110.535088,349.692982 85.0526316,343 65.1315789,335.052632 C65.0263158,335.017544 64.9210526,334.973684 64.8157895,334.929825 C61.1403509,333.45614 57.6929825,331.929825 54.4122807,330.377193 C54.0350877,330.192982 53.6315789,330.017544 53.254386,329.833333 C50.3070175,328.412281 47.5789474,326.95614 44.9649123,325.473684 C44.3508772,325.122807 43.7017544,324.780702 43.1052632,324.421053 C40.8333333,323.087719 38.7631579,321.72807 36.7807018,320.359649 C36.0263158,319.833333 35.245614,319.307018 34.5263158,318.780702 C32.8508772,317.54386 31.3508772,316.298246 29.9122807,315.04386 C29.1315789,314.350877 28.3508772,313.666667 27.6315789,312.973684 C26.4561404,311.833333 25.4210526,310.684211 24.4473684,309.535088 C23.7631579,308.72807 23.1052632,307.912281 22.5263158,307.105263 C21.754386,306.026316 21.0964912,304.947368 20.5087719,303.868421 C20.0350877,303 19.6140351,302.131579 19.254386,301.263158 C18.8245614,300.201754 18.4824561,299.140351 18.2368421,298.087719 C17.9035088,296.692982 17.5438596,295.27193 17.5438596,293.859649 L17.5438596,221.868421 C17.7894737,222.096491 18.0964912,222.315789 18.3508772,222.54386 C20.2719298,224.219298 22.2105263,225.894737 24.4035088,227.508772 C57.4473684,252.508772 123.526316,271.929825 219.298246,271.929825 C314.675439,271.929825 380.578947,252.666667 413.763158,227.824561 C416.412281,225.894737 418.798246,223.903509 421.04386,221.877193 C421.04386,221.877193 421.04386,221.877193 421.04386,221.877193 L421.052632,254.385965 C421.052632,259.236842 424.973684,263.157895 429.824561,263.157895 C434.675439,263.157895 438.596491,259.236842 438.596491,254.385965 L438.596491,192.982456 L438.596491,188.596491 L438.596491,83.3333333 L438.596491,78.9473684 C438.596491,77.3508772 438.052632,75.9385965 437.315789,74.6491228 C427.157895,37.0175439 351.552632,0 219.298246,0 C87.0438596,0 11.4298246,37.0175439 1.28070175,74.6491228 C0.543859649,75.9385965 0,77.3508772 0,78.9473684 L0,83.3333333 L0,188.596491 L0,192.982456 L0,293.859649 L0,298.245614 L0,403.508772 C0,404.921053 0.368421053,406.254386 1.00877193,407.438596 C11,449.833333 94.7894737,474.807018 174.780702,480.807018 C175,480.824561 175.22807,480.833333 175.447368,480.833333 C180,480.833333 183.842105,477.333333 184.184211,472.719298 C184.54386,467.885965 180.929825,463.675439 176.096491,463.315789 C78.6052632,456 21.7894737,426.315789 17.8245614,402.087719 C17.754386,401.692982 17.6666667,401.315789 17.5438596,400.938596 L17.5438596,327.131579 C17.7894737,327.359649 18.0964912,327.578947 18.3508772,327.807018 C20.2719298,329.482456 22.2105263,331.157895 24.4035088,332.77193 C57.4473684,357.77193 123.526316,377.192982 219.298246,377.192982 C224.149123,377.192982 228.070175,373.27193 228.070175,368.421053 C228.070175,363.570175 224.149123,359.649123 219.298246,359.649123 Z M22.8157895,121.026316 C25.4473684,123.096491 28.2894737,125.140351 31.3684211,127.131579 C32.0087719,127.54386 32.7280702,127.947368 33.3947368,128.359649 C35.9736842,129.964912 38.7017544,131.535088 41.5701754,133.078947 C42.6315789,133.649123 43.6929825,134.210526 44.7982456,134.77193 C48,136.403509 51.3596491,137.982456 54.8947368,139.526316 C55.4736842,139.780702 56,140.04386 56.5789474,140.289474 C60.6929825,142.035088 65.0614035,143.701754 69.6140351,145.307018 C70.8684211,145.754386 72.1842105,146.175439 73.4736842,146.614035 C77.0877193,147.833333 80.8245614,149 84.6929825,150.131579 C86.0877193,150.535088 87.4561404,150.95614 88.8859649,151.350877 C94.0175439,152.77193 99.3157895,154.122807 104.877193,155.368421 C105.640351,155.54386 106.464912,155.692982 107.236842,155.859649 C112.140351,156.929825 117.22807,157.921053 122.45614,158.842105 C124.22807,159.157895 126.026316,159.45614 127.833333,159.754386 C132.807018,160.570175 137.929825,161.324561 143.184211,162.008772 C144.535088,162.184211 145.833333,162.377193 147.192982,162.552632 C153.719298,163.342105 160.464912,164.017544 167.412281,164.596491 C169.122807,164.736842 170.903509,164.842105 172.640351,164.964912 C178.192982,165.368421 183.868421,165.701754 189.675439,165.964912 C191.789474,166.061404 193.894737,166.157895 196.052632,166.22807 C203.614035,166.482456 211.315789,166.666667 219.298246,166.666667 C227.280702,166.666667 234.982456,166.482456 242.54386,166.22807 C244.692982,166.157895 246.798246,166.052632 248.921053,165.964912 C254.72807,165.701754 260.403509,165.368421 265.95614,164.964912 C267.692982,164.833333 269.473684,164.736842 271.184211,164.596491 C278.122807,164.026316 284.877193,163.342105 291.403509,162.552632 C292.77193,162.385965 294.061404,162.184211 295.412281,162.008772 C300.666667,161.324561 305.780702,160.570175 310.763158,159.754386 C312.570175,159.45614 314.368421,159.157895 316.140351,158.842105 C321.368421,157.921053 326.45614,156.929825 331.359649,155.859649 C332.131579,155.692982 332.95614,155.54386 333.719298,155.368421 C339.280702,154.122807 344.578947,152.77193 349.710526,151.350877 C351.140351,150.95614 352.508772,150.54386 353.903509,150.131579 C357.77193,149.008772 361.508772,147.833333 365.122807,146.614035 C366.412281,146.175439 367.72807,145.754386 368.982456,145.307018 C373.526316,143.692982 377.903509,142.026316 382.017544,140.289474 C382.605263,140.04386 383.131579,139.77193 383.701754,139.526316 C387.236842,137.982456 390.596491,136.403509 393.798246,134.77193 C394.894737,134.210526 395.964912,133.649123 397.026316,133.078947 C399.894737,131.54386 402.622807,129.973684 405.201754,128.359649 C405.868421,127.947368 406.587719,127.54386 407.22807,127.131579 C410.307018,125.140351 413.149123,123.105263 415.780702,121.026316 C416.438596,120.5 417.026316,119.973684 417.657895,119.447368 C418.798246,118.5 420,117.561404 421.052632,116.605263 L421.052632,188.596491 C421.052632,190.008772 420.692982,191.429825 420.359649,192.850877 C420.114035,193.912281 419.77193,194.964912 419.342105,196.026316 C418.991228,196.894737 418.561404,197.763158 418.087719,198.631579 C417.5,199.710526 416.842105,200.789474 416.070175,201.868421 C415.491228,202.675439 414.833333,203.491228 414.149123,204.298246 C413.175439,205.447368 412.140351,206.596491 410.964912,207.736842 C410.254386,208.429825 409.473684,209.114035 408.684211,209.807018 C407.245614,211.061404 405.745614,212.307018 404.070175,213.54386 C403.350877,214.078947 402.578947,214.596491 401.815789,215.122807 C399.833333,216.491228 397.763158,217.850877 395.491228,219.184211 C394.894737,219.54386 394.254386,219.885965 393.631579,220.236842 C391.026316,221.710526 388.289474,223.166667 385.342105,224.596491 C384.964912,224.780702 384.570175,224.95614 384.184211,225.140351 C380.894737,226.692982 377.45614,228.219298 373.780702,229.692982 C373.675439,229.736842 373.570175,229.77193 373.464912,229.815789 C353.54386,237.77193 328.061404,244.464912 298.368421,248.842105 C298.219298,248.859649 298.070175,248.877193 297.921053,248.903509 C292.149123,249.754386 286.22807,250.517544 280.149123,251.175439 C279.157895,251.280702 278.114035,251.350877 277.114035,251.45614 C271.807018,252.008772 266.429825,252.517544 260.912281,252.921053 C258.385965,253.105263 255.736842,253.201754 253.166667,253.350877 C249.008772,253.596491 244.894737,253.868421 240.631579,254.026316 C233.657895,254.245614 226.552632,254.385965 219.298246,254.385965 C212.04386,254.385965 204.938596,254.245614 197.964912,254 C193.701754,253.842105 189.587719,253.570175 185.429825,253.324561 C182.859649,253.175439 180.210526,253.078947 177.684211,252.894737 C172.157895,252.5 166.789474,251.982456 161.482456,251.429825 C160.482456,251.324561 159.438596,251.254386 158.447368,251.149123 C152.368421,250.482456 146.447368,249.719298 140.675439,248.877193 C140.526316,248.859649 140.377193,248.842105 140.22807,248.815789 C110.535088,244.429825 85.0526316,237.736842 65.1315789,229.789474 C65.0263158,229.754386 64.9210526,229.710526 64.8157895,229.666667 C61.1403509,228.192982 57.6929825,226.666667 54.4122807,225.114035 C54.0350877,224.929825 53.6315789,224.754386 53.254386,224.570175 C50.3070175,223.149123 47.5789474,221.692982 44.9649123,220.210526 C44.3508772,219.859649 43.7017544,219.517544 43.1052632,219.157895 C40.8333333,217.824561 38.7631579,216.464912 36.7807018,215.096491 C36.0263158,214.570175 35.245614,214.04386 34.5263158,213.517544 C32.8508772,212.280702 31.3508772,211.035088 29.9122807,209.780702 C29.1315789,209.087719 28.3508772,208.403509 27.6315789,207.710526 C26.4561404,206.570175 25.4210526,205.421053 24.4473684,204.27193 C23.7631579,203.464912 23.1052632,202.649123 22.5263158,201.842105 C21.754386,200.763158 21.0964912,199.684211 20.5087719,198.605263 C20.0350877,197.736842 19.6140351,196.868421 19.254386,196 C18.8245614,194.938596 18.4824561,193.877193 18.2368421,192.824561 C17.9035088,191.429825 17.5438596,190.008772 17.5438596,188.596491 L17.5438596,116.605263 C18.5964912,117.561404 19.7982456,118.5 20.9385965,119.447368 C21.5701754,119.973684 22.1578947,120.5 22.8157895,121.026316 Z M219.298246,17.5438596 C338.201754,17.5438596 421.052632,52.2105263 421.052632,83.3333333 C421.052632,114.45614 338.201754,149.122807 219.298246,149.122807 C100.394737,149.122807 17.5438596,114.45614 17.5438596,83.3333333 C17.5438596,52.2105263 100.394737,17.5438596 219.298246,17.5438596 Z" id="Shape"></path>
            </g>
        </g>
    </g>
</svg>