<?xml version="1.0" encoding="UTF-8"?>
<svg width="500px" height="500px" viewBox="0 0 500 500" version="1.1" xmlns="http://www.w3.org/2000/svg" xmlns:xlink="http://www.w3.org/1999/xlink">
    <!-- Generator: Sketch 51.3 (57544) - http://www.bohemiancoding.com/sketch -->
    <title>blockchain</title>
    <desc>Created with Sketch.</desc>
    <defs></defs>
    <g id="Page-1" stroke="none" stroke-width="1" fill="none" fill-rule="evenodd">
        <g id="Artboard" transform="translate(-2237.000000, -138.000000)" fill="#007BFF" fill-rule="nonzero">
            <g id="blockchain" transform="translate(2237.000000, 138.000000)">
                <path d="M314.516129,322.580645 L185.483871,322.580645 C181.029962,322.580645 177.419355,318.970038 177.419355,314.516129 L177.419355,185.483871 C177.419355,181.029962 181.029962,177.419355 185.483871,177.419355 L314.516129,177.419355 C318.970038,177.419355 322.580645,181.029962 322.580645,185.483871 L322.580645,314.516129 C322.580645,318.970038 318.970038,322.580645 314.516129,322.580645 Z M193.548387,306.451613 L306.451613,306.451613 L306.451613,193.548387 L193.548387,193.548387 L193.548387,306.451613 Z" id="Shape"></path>
                <path d="M137.096774,145.16129 L8.06451613,145.16129 C3.61060686,145.16129 0,141.550683 0,137.096774 L0,8.06451613 C-8.95341149e-16,3.61060686 3.61060686,0 8.06451613,0 L137.096774,0 C141.550683,0 145.16129,3.61060686 145.16129,8.06451613 L145.16129,137.096774 C145.16129,141.550683 141.550683,145.16129 137.096774,145.16129 Z M16.1290323,129.032258 L129.032258,129.032258 L129.032258,16.1290323 L16.1290323,16.1290323 L16.1290323,129.032258 Z" id="Shape"></path>
                <path d="M491.935484,500 L362.903226,500 C358.449317,500 354.83871,496.389393 354.83871,491.935484 L354.83871,362.903226 C354.83871,358.449317 358.449317,354.83871 362.903226,354.83871 L491.935484,354.83871 C496.389393,354.83871 500,358.449317 500,362.903226 L500,491.935484 C500,496.389393 496.389393,500 491.935484,500 Z M370.967742,483.870968 L483.870968,483.870968 L483.870968,370.967742 L370.967742,370.967742 L370.967742,483.870968 Z" id="Shape"></path>
                <path d="M491.935484,145.16129 L362.903226,145.16129 C358.449317,145.16129 354.83871,141.550683 354.83871,137.096774 L354.83871,8.06451613 C354.83871,3.61060686 358.449317,0 362.903226,0 L491.935484,0 C496.389393,0 500,3.61060686 500,8.06451613 L500,137.096774 C500,141.550683 496.389393,145.16129 491.935484,145.16129 Z M370.967742,129.032258 L483.870968,129.032258 L483.870968,16.1290323 L370.967742,16.1290323 L370.967742,129.032258 Z" id="Shape"></path>
                <path d="M137.096774,500 L8.06451613,500 C3.61060686,500 0,496.389393 0,491.935484 L0,362.903226 C-8.95341149e-16,358.449317 3.61060686,354.83871 8.06451613,354.83871 L137.096774,354.83871 C141.550683,354.83871 145.16129,358.449317 145.16129,362.903226 L145.16129,491.935484 C145.16129,496.389393 141.550683,500 137.096774,500 Z M16.1290323,483.870968 L129.032258,483.870968 L129.032258,370.967742 L16.1290323,370.967742 L16.1290323,483.870968 Z" id="Shape"></path>
                <path d="M266.129032,96.7741935 L233.870968,96.7741935 C229.417058,96.7741935 225.806452,93.1635867 225.806452,88.7096774 L225.806452,56.4516129 C225.806452,51.9977036 229.417058,48.3870968 233.870968,48.3870968 L266.129032,48.3870968 C270.582942,48.3870968 274.193548,51.9977036 274.193548,56.4516129 L274.193548,88.7096774 C274.193548,93.1635867 270.582942,96.7741935 266.129032,96.7741935 Z M241.935484,80.6451613 L258.064516,80.6451613 L258.064516,64.516129 L241.935484,64.516129 L241.935484,80.6451613 Z" id="Shape"></path>
                <path d="M250,185.483871 C245.546091,185.483871 241.935484,181.873264 241.935484,177.419355 L241.935484,96.7741935 C241.935484,92.3202843 245.546091,88.7096774 250,88.7096774 C254.453909,88.7096774 258.064516,92.3202843 258.064516,96.7741935 L258.064516,177.419355 C258.064516,181.873264 254.453909,185.483871 250,185.483871 Z" id="Shape"></path>
                <path d="M354.83871,80.6451613 L274.193548,80.6451613 C269.739639,80.6451613 266.129032,77.0345544 266.129032,72.5806452 C266.129032,68.1267359 269.739639,64.516129 274.193548,64.516129 L354.83871,64.516129 C359.292619,64.516129 362.903226,68.1267359 362.903226,72.5806452 C362.903226,77.0345544 359.292619,80.6451613 354.83871,80.6451613 Z" id="Shape"></path>
                <path d="M266.129032,451.612903 L233.870968,451.612903 C229.417058,451.612903 225.806452,448.002296 225.806452,443.548387 L225.806452,411.290323 C225.806452,406.836413 229.417058,403.225806 233.870968,403.225806 L266.129032,403.225806 C270.582942,403.225806 274.193548,406.836413 274.193548,411.290323 L274.193548,443.548387 C274.193548,448.002296 270.582942,451.612903 266.129032,451.612903 Z M241.935484,435.483871 L258.064516,435.483871 L258.064516,419.354839 L241.935484,419.354839 L241.935484,435.483871 Z" id="Shape"></path>
                <path d="M250,411.290323 C245.546091,411.290323 241.935484,407.679716 241.935484,403.225806 L241.935484,322.580645 C241.935484,318.126736 245.546091,314.516129 250,314.516129 C254.453909,314.516129 258.064516,318.126736 258.064516,322.580645 L258.064516,403.225806 C258.064516,407.679716 254.453909,411.290323 250,411.290323 Z" id="Shape"></path>
                <path d="M225.806452,435.483871 L145.16129,435.483871 C140.707381,435.483871 137.096774,431.873264 137.096774,427.419355 C137.096774,422.965446 140.707381,419.354839 145.16129,419.354839 L225.806452,419.354839 C230.260361,419.354839 233.870968,422.965446 233.870968,427.419355 C233.870968,431.873264 230.260361,435.483871 225.806452,435.483871 Z" id="Shape"></path>
                <path d="M88.7096774,274.193548 L56.4516129,274.193548 C51.9977036,274.193548 48.3870968,270.582942 48.3870968,266.129032 L48.3870968,233.870968 C48.3870968,229.417058 51.9977036,225.806452 56.4516129,225.806452 L88.7096774,225.806452 C93.1635867,225.806452 96.7741935,229.417058 96.7741935,233.870968 L96.7741935,266.129032 C96.7741935,270.582942 93.1635867,274.193548 88.7096774,274.193548 Z M64.516129,258.064516 L80.6451613,258.064516 L80.6451613,241.935484 L64.516129,241.935484 L64.516129,258.064516 Z" id="Shape"></path>
                <path d="M177.419355,258.064516 L96.7741935,258.064516 C92.3202843,258.064516 88.7096774,254.453909 88.7096774,250 C88.7096774,245.546091 92.3202843,241.935484 96.7741935,241.935484 L177.419355,241.935484 C181.873264,241.935484 185.483871,245.546091 185.483871,250 C185.483871,254.453909 181.873264,258.064516 177.419355,258.064516 Z" id="Shape"></path>
                <path d="M72.5806452,233.870968 C68.1267359,233.870968 64.516129,230.260361 64.516129,225.806452 L64.516129,145.16129 C64.516129,140.707381 68.1267359,137.096774 72.5806452,137.096774 C77.0345544,137.096774 80.6451613,140.707381 80.6451613,145.16129 L80.6451613,225.806452 C80.6451613,230.260361 77.0345544,233.870968 72.5806452,233.870968 Z" id="Shape"></path>
                <path d="M443.548387,274.193548 L411.290323,274.193548 C406.836413,274.193548 403.225806,270.582942 403.225806,266.129032 L403.225806,233.870968 C403.225806,229.417058 406.836413,225.806452 411.290323,225.806452 L443.548387,225.806452 C448.002296,225.806452 451.612903,229.417058 451.612903,233.870968 L451.612903,266.129032 C451.612903,270.582942 448.002296,274.193548 443.548387,274.193548 Z M419.354839,258.064516 L435.483871,258.064516 L435.483871,241.935484 L419.354839,241.935484 L419.354839,258.064516 Z" id="Shape"></path>
                <path d="M403.225806,258.064516 L322.580645,258.064516 C318.126736,258.064516 314.516129,254.453909 314.516129,250 C314.516129,245.546091 318.126736,241.935484 322.580645,241.935484 L403.225806,241.935484 C407.679716,241.935484 411.290323,245.546091 411.290323,250 C411.290323,254.453909 407.679716,258.064516 403.225806,258.064516 Z" id="Shape"></path>
                <path d="M427.419355,362.903226 C422.965446,362.903226 419.354839,359.292619 419.354839,354.83871 L419.354839,274.193548 C419.354839,269.739639 422.965446,266.129032 427.419355,266.129032 C431.873264,266.129032 435.483871,269.739639 435.483871,274.193548 L435.483871,354.83871 C435.483871,359.292619 431.873264,362.903226 427.419355,362.903226 Z" id="Shape"></path>
            </g>
        </g>
    </g>
</svg>