<?xml version="1.0" encoding="UTF-8"?>
<svg width="500px" height="500px" viewBox="0 0 500 500" version="1.1" xmlns="http://www.w3.org/2000/svg" xmlns:xlink="http://www.w3.org/1999/xlink">
    <!-- Generator: Sketch 51.3 (57544) - http://www.bohemiancoding.com/sketch -->
    <title>cloud</title>
    <desc>Created with Sketch.</desc>
    <defs></defs>
    <g id="Page-1" stroke="none" stroke-width="1" fill="none" fill-rule="evenodd">
        <g id="Artboard" transform="translate(-4259.000000, -109.000000)" fill="#007BFF" fill-rule="nonzero">
            <g id="cloud" transform="translate(4259.000000, 109.000000)">
                <path d="M215.425532,431.790426 L215.425532,303.909574 C215.425532,299.502128 211.854255,295.930851 207.446809,295.930851 L154.255319,295.930851 C149.847872,295.930851 146.276596,299.502128 146.276596,303.909574 C146.276596,308.317021 149.847872,311.888298 154.255319,311.888298 L199.468085,311.888298 L199.468085,431.790426 C184.239362,435.403191 172.87234,449.107447 172.87234,465.425532 C172.87234,484.490426 188.381915,500 207.446809,500 C226.511702,500 242.021277,484.490426 242.021277,465.425532 C242.021277,449.107447 230.654255,435.403191 215.425532,431.790426 Z M207.446809,484.042553 C197.181915,484.042553 188.829787,475.690426 188.829787,465.425532 C188.829787,455.160638 197.181915,446.808511 207.446809,446.808511 C217.711702,446.808511 226.06383,455.160638 226.06383,465.425532 C226.06383,475.690426 217.711702,484.042553 207.446809,484.042553 Z" id="Shape"></path>
                <path d="M300.531915,431.790426 L300.531915,303.909574 C300.531915,299.502128 296.960638,295.930851 292.553191,295.930851 L239.362766,295.930851 C234.955319,295.930851 231.384043,299.502128 231.384043,303.909574 C231.384043,308.317021 234.955319,311.888298 239.362766,311.888298 L284.574468,311.888298 L284.574468,431.790426 C269.345745,435.403191 257.978723,449.107447 257.978723,465.425532 C257.978723,484.490426 273.488298,500 292.553191,500 C311.618085,500 327.12766,484.490426 327.12766,465.425532 C327.12766,449.107447 315.760638,435.403191 300.531915,431.790426 Z M292.553191,484.042553 C282.288298,484.042553 273.93617,475.690426 273.93617,465.425532 C273.93617,455.160638 282.288298,446.808511 292.553191,446.808511 C302.818085,446.808511 311.170213,455.160638 311.170213,465.425532 C311.170213,475.690426 302.818085,484.042553 292.553191,484.042553 Z" id="Shape"></path>
                <path d="M436.170213,377.659574 C419.852128,377.659574 406.147872,389.026596 402.535106,404.255319 L385.638298,404.255319 L385.638298,303.909574 C385.638298,299.502128 382.067021,295.930851 377.659574,295.930851 L324.468085,295.930851 C320.060638,295.930851 316.489362,299.502128 316.489362,303.909574 C316.489362,308.317021 320.060638,311.888298 324.468085,311.888298 L369.680851,311.888298 L369.680851,412.234043 C369.680851,416.641489 373.252128,420.212766 377.659574,420.212766 L402.535106,420.212766 C406.147872,435.441489 419.852128,446.808511 436.170213,446.808511 C455.235106,446.808511 470.744681,431.298936 470.744681,412.234043 C470.744681,393.169149 455.235106,377.659574 436.170213,377.659574 Z M436.170213,430.851064 C425.905319,430.851064 417.553191,422.498936 417.553191,412.234043 C417.553191,401.969149 425.905319,393.617021 436.170213,393.617021 C446.435106,393.617021 454.787234,401.969149 454.787234,412.234043 C454.787234,422.498936 446.435106,430.851064 436.170213,430.851064 Z" id="Shape"></path>
                <path d="M481.001064,171.869149 C470.247872,158.518085 455.642553,148.626596 439.391489,143.579787 C437.561702,105.810638 421.891489,70.5712766 394.880851,43.7861702 C366.406383,15.55 328.640426,0 288.538298,0 C235.87766,0 187.148936,27.4595745 159.744681,72.1138298 C153.080851,70.012766 146.154255,68.9521277 139.070213,68.9521277 C106.47766,68.9521277 78.45,91.9585106 71.6914894,123.319149 C29.8340426,134.17766 0,172.32766 0,216.064894 C0,268.902128 42.9851064,311.888298 95.8223404,311.888298 L114.361702,311.888298 L114.361702,404.255319 L97.4648936,404.255319 C93.8521277,389.026596 80.1478723,377.659574 63.8297872,377.659574 C44.7648936,377.659574 29.2553191,393.169149 29.2553191,412.234043 C29.2553191,431.298936 44.7648936,446.808511 63.8297872,446.808511 C80.1478723,446.808511 93.8521277,435.441489 97.4648936,420.212766 L122.340426,420.212766 C126.747872,420.212766 130.319149,416.641489 130.319149,412.234043 L130.319149,303.909574 C130.319149,299.502128 126.747872,295.930851 122.340426,295.930851 L95.8223404,295.930851 C51.7851064,295.930851 15.9574468,260.103191 15.9574468,216.064894 C15.9574468,178.061702 42.9734043,145.120213 80.1946809,137.738298 C83.5510638,137.073404 86.1106383,134.341489 86.5542553,130.947872 C89.9893617,104.702128 112.565957,84.9106383 139.070213,84.9106383 C146.361702,84.9106383 153.432979,86.3712766 160.087234,89.2510638 C163.859574,90.8840426 168.252128,89.3840426 170.239362,85.7893617 C194.052128,42.7148936 239.381915,15.9574468 288.538298,15.9574468 C362.351064,15.9574468 422.942553,75.9978723 423.608511,149.8 C423.641489,153.487234 426.196809,156.670213 429.788298,157.501064 C461.732979,164.893617 484.043617,192.980851 484.043617,225.802128 C484.043617,264.471277 452.585106,295.930851 413.915957,295.930851 L409.574468,295.930851 C405.167021,295.930851 401.595745,299.502128 401.595745,303.909574 C401.595745,308.317021 405.167021,311.888298 409.574468,311.888298 L413.914894,311.888298 C461.381915,311.888298 500,273.270213 500,225.802128 C500,206.232979 493.252128,187.078723 481.001064,171.869149 Z M63.8297872,430.851064 C53.5648936,430.851064 45.212766,422.498936 45.212766,412.234043 C45.212766,401.969149 53.5648936,393.617021 63.8297872,393.617021 C74.0946809,393.617021 82.4468085,401.969149 82.4468085,412.234043 C82.4468085,422.498936 74.0946809,430.851064 63.8297872,430.851064 Z" id="Shape"></path>
                <path d="M389.034043,158.090426 L389.107447,158.090426 C393.51383,158.05 397.053191,154.445745 397.01383,150.039362 C396.894681,136.896809 394.41383,124.03617 389.640426,111.814894 C388.03617,107.710638 383.410638,105.681915 379.305319,107.285106 C375.2,108.888298 373.17234,113.514894 374.775532,117.620213 C378.841489,128.028723 380.954255,138.985106 381.055319,150.184043 C381.096809,154.567021 384.660638,158.090426 389.034043,158.090426 Z" id="Shape"></path>
                <path d="M359.870213,92.293617 C361.447872,94.2042553 363.72766,95.1914894 366.025532,95.1914894 C367.815957,95.1914894 369.615957,94.5925532 371.102128,93.3638298 C374.498936,90.5574468 374.978723,85.5287234 372.17234,82.1308511 C351.395745,56.9787234 320.911702,42.5531915 288.539362,42.5531915 C284.131915,42.5531915 280.560638,46.1244681 280.560638,50.5319149 C280.560638,54.9393617 284.131915,58.5106383 288.539362,58.5106383 C316.135106,58.5106383 342.134043,70.8234043 359.870213,92.293617 Z" id="Shape"></path>
            </g>
        </g>
    </g>
</svg>