<?xml version="1.0" encoding="UTF-8"?>
<svg width="500px" height="467px" viewBox="0 0 500 467" version="1.1" xmlns="http://www.w3.org/2000/svg" xmlns:xlink="http://www.w3.org/1999/xlink">
    <!-- Generator: Sketch 51.3 (57544) - http://www.bohemiancoding.com/sketch -->
    <title>frontend</title>
    <desc>Created with Sketch.</desc>
    <defs></defs>
    <g id="Page-1" stroke="none" stroke-width="1" fill="none" fill-rule="evenodd">
        <g id="Artboard" transform="translate(-3676.000000, -142.000000)" fill="#007BFF" fill-rule="nonzero">
            <g id="frontend" transform="translate(3676.000000, 142.000000)">
                <path d="M475,224.966448 L475,41.6604533 C475,18.6888794 456.308333,0 433.333333,0 L66.6666667,0 C43.6916667,0 25,18.6888794 25,41.6604533 L25,166.641813 C11.2166667,166.641813 0,177.856807 0,191.638085 L0,441.600805 C0,455.382083 11.2166667,466.597077 25,466.597077 L208.333333,466.597077 C222.116667,466.597077 233.333333,455.382083 233.333333,441.600805 L303.175,441.600805 C311.033333,441.600805 318.275,438.018006 323.041667,431.77727 C327.808333,425.536534 329.358333,417.604384 327.291667,410.030514 L310.908333,349.947808 L358.333333,349.947808 L358.333333,441.600805 C358.333333,455.382083 369.55,466.597077 383.333333,466.597077 L475,466.597077 C488.783333,466.597077 500,455.382083 500,441.600805 L500,249.96272 C500,236.181442 488.783333,224.966448 475,224.966448 Z M216.666667,441.600805 C216.666667,446.191787 212.925,449.932896 208.333333,449.932896 L25,449.932896 C20.4083333,449.932896 16.6666667,446.191787 16.6666667,441.600805 L16.6666667,424.936624 L216.666667,424.936624 L216.666667,441.600805 Z M216.666667,408.272443 L16.6666667,408.272443 L16.6666667,224.966448 L216.666667,224.966448 L216.666667,408.272443 Z M216.666667,208.302267 L16.6666667,208.302267 L16.6666667,191.638085 C16.6666667,187.047103 20.4083333,183.305995 25,183.305995 L208.333333,183.305995 C212.925,183.305995 216.666667,187.047103 216.666667,191.638085 L216.666667,208.302267 Z M311.216667,414.413193 C311.908333,416.937817 311.391667,419.57909 309.8,421.662112 C308.208333,423.745135 305.8,424.936624 303.175,424.936624 L233.333333,424.936624 L233.333333,408.272443 L309.541667,408.272443 L311.216667,414.413193 Z M233.333333,391.608261 L233.333333,349.947808 L293.633333,349.947808 L305,391.608261 L233.333333,391.608261 Z M358.333333,333.283627 L233.333333,333.283627 L233.333333,283.291083 L358.333333,283.291083 L358.333333,333.283627 Z M358.333333,249.96272 L358.333333,266.626901 L233.333333,266.626901 L233.333333,191.638085 C233.333333,177.856807 222.116667,166.641813 208.333333,166.641813 L41.6666667,166.641813 L41.6666667,41.6604533 C41.6666667,27.8791754 52.8833333,16.6641813 66.6666667,16.6641813 L433.333333,16.6641813 C447.116667,16.6641813 458.333333,27.8791754 458.333333,41.6604533 L458.333333,224.966448 L383.333333,224.966448 C369.55,224.966448 358.333333,236.181442 358.333333,249.96272 Z M483.333333,441.600805 C483.333333,446.191787 479.591667,449.932896 475,449.932896 L383.333333,449.932896 C378.741667,449.932896 375,446.191787 375,441.600805 L375,424.936624 L483.333333,424.936624 L483.333333,441.600805 Z M483.333333,408.272443 L375,408.272443 L375,283.291083 L483.333333,283.291083 L483.333333,408.272443 Z M483.333333,266.626901 L375,266.626901 L375,249.96272 C375,245.371738 378.741667,241.630629 383.333333,241.630629 L475,241.630629 C479.591667,241.630629 483.333333,245.371738 483.333333,249.96272 L483.333333,266.626901 Z" id="Shape"></path>
            </g>
        </g>
    </g>
</svg>