<?xml version="1.0" encoding="UTF-8"?>
<svg width="500px" height="484px" viewBox="0 0 500 484" version="1.1" xmlns="http://www.w3.org/2000/svg" xmlns:xlink="http://www.w3.org/1999/xlink">
    <!-- Generator: Sketch 51.3 (57544) - http://www.bohemiancoding.com/sketch -->
    <title>infrastructure</title>
    <desc>Created with Sketch.</desc>
    <defs></defs>
    <g id="Page-1" stroke="none" stroke-width="1" fill="none" fill-rule="evenodd">
        <g id="Artboard" transform="translate(-760.000000, -134.000000)" fill="#007BFF" fill-rule="nonzero">
            <g id="infrastructure" transform="translate(760.000000, 134.000000)">
                <path d="M87.5,50 C66.825,50 50,66.825 50,87.5 C50,108.175 66.825,125 87.5,125 C108.175,125 125,108.175 125,87.5 C125,66.825 108.175,50 87.5,50 Z M87.5,108.333333 C76.0166667,108.333333 66.6666667,98.9916667 66.6666667,87.5 C66.6666667,76.0083333 76.0166667,66.6666667 87.5,66.6666667 C98.9833333,66.6666667 108.333333,76.0083333 108.333333,87.5 C108.333333,98.9916667 98.9833333,108.333333 87.5,108.333333 Z" id="Shape"></path>
                <circle id="Oval" cx="416.666667" cy="75" r="8.33333333"></circle>
                <circle id="Oval" cx="383.333333" cy="75" r="8.33333333"></circle>
                <circle id="Oval" cx="433.333333" cy="100" r="8.33333333"></circle>
                <circle id="Oval" cx="400" cy="100" r="8.33333333"></circle>
                <circle id="Oval" cx="350" cy="75" r="8.33333333"></circle>
                <circle id="Oval" cx="366.666667" cy="100" r="8.33333333"></circle>
                <circle id="Oval" cx="316.666667" cy="75" r="8.33333333"></circle>
                <circle id="Oval" cx="333.333333" cy="100" r="8.33333333"></circle>
                <circle id="Oval" cx="283.333333" cy="75" r="8.33333333"></circle>
                <circle id="Oval" cx="300" cy="100" r="8.33333333"></circle>
                <path d="M500,136.6 L500,38.4 C500,17.225 482.775,0 461.6,0 L38.4,0 C17.225,0 0,17.225 0,38.4 L0,136.591667 C0,148.833333 5.85833333,159.633333 14.8083333,166.666667 C5.85833333,173.7 0,184.5 0,196.733333 L0,294.925 C0,316.108333 17.225,333.333333 38.4,333.333333 L241.666667,333.333333 L241.666667,400.841667 C225.366667,404.166667 212.5,417.033333 209.175,433.333333 L8.33333333,433.333333 C3.73333333,433.333333 0,437.058333 0,441.666667 C0,446.275 3.73333333,450 8.33333333,450 L209.175,450 C213.05,468.991667 229.875,483.333333 250,483.333333 C270.125,483.333333 286.95,468.991667 290.825,450 L491.666667,450 C496.266667,450 500,446.275 500,441.666667 C500,437.058333 496.266667,433.333333 491.666667,433.333333 L290.825,433.333333 C287.5,417.033333 274.633333,404.166667 258.333333,400.841667 L258.333333,333.333333 L461.6,333.333333 C482.775,333.333333 500,316.108333 500,294.933333 L500,196.733333 C500,184.491667 494.141667,173.7 485.191667,166.666667 C494.141667,159.633333 500,148.833333 500,136.6 Z M275,441.666667 C275,455.45 263.783333,466.666667 250,466.666667 C236.216667,466.666667 225,455.45 225,441.666667 C225,427.883333 236.216667,416.666667 250,416.666667 C263.783333,416.666667 275,427.883333 275,441.666667 Z M483.333333,196.733333 L483.333333,294.925 C483.333333,306.916667 473.583333,316.666667 461.6,316.666667 L38.4,316.666667 C26.4166667,316.666667 16.6666667,306.916667 16.6666667,294.933333 L16.6666667,196.733333 C16.6666667,184.75 26.4166667,175 38.4,175 L461.591667,175 C473.583333,175 483.333333,184.75 483.333333,196.733333 Z M38.4,158.333333 C26.4166667,158.333333 16.6666667,148.583333 16.6666667,136.6 L16.6666667,38.4 C16.6666667,26.4166667 26.4166667,16.6666667 38.4,16.6666667 L461.591667,16.6666667 C473.583333,16.6666667 483.333333,26.4166667 483.333333,38.4 L483.333333,136.591667 C483.333333,148.583333 473.583333,158.333333 461.6,158.333333 L38.4,158.333333 Z" id="Shape"></path>
                <path d="M87.5,283.333333 C108.175,283.333333 125,266.508333 125,245.833333 C125,225.158333 108.175,208.333333 87.5,208.333333 C66.825,208.333333 50,225.158333 50,245.833333 C50,266.508333 66.825,283.333333 87.5,283.333333 Z M87.5,225 C98.9833333,225 108.333333,234.341667 108.333333,245.833333 C108.333333,257.325 98.9833333,266.666667 87.5,266.666667 C76.0166667,266.666667 66.6666667,257.325 66.6666667,245.833333 C66.6666667,234.341667 76.0166667,225 87.5,225 Z" id="Shape"></path>
                <circle id="Oval" cx="416.666667" cy="233.333333" r="8.33333333"></circle>
                <circle id="Oval" cx="383.333333" cy="233.333333" r="8.33333333"></circle>
                <circle id="Oval" cx="433.333333" cy="258.333333" r="8.33333333"></circle>
                <circle id="Oval" cx="400" cy="258.333333" r="8.33333333"></circle>
                <circle id="Oval" cx="350" cy="233.333333" r="8.33333333"></circle>
                <circle id="Oval" cx="366.666667" cy="258.333333" r="8.33333333"></circle>
                <circle id="Oval" cx="316.666667" cy="233.333333" r="8.33333333"></circle>
                <circle id="Oval" cx="333.333333" cy="258.333333" r="8.33333333"></circle>
                <circle id="Oval" cx="283.333333" cy="233.333333" r="8.33333333"></circle>
                <circle id="Oval" cx="300" cy="258.333333" r="8.33333333"></circle>
            </g>
        </g>
    </g>
</svg>